<?xml version="1.0" encoding="utf-8"?>
<!-- Generator: Adobe Illustrator 21.1.0, SVG Export Plug-In . SVG Version: 6.00 Build 0)  -->
<svg version="1.1" id="Layer_1" xmlns="http://www.w3.org/2000/svg" xmlns:xlink="http://www.w3.org/1999/xlink" x="0px" y="0px"
	 viewBox="0 0 2416 973.7" style="enable-background:new 0 0 2416 973.7;" xml:space="preserve">
<style type="text/css">
	.st0{fill:#040404;}
</style>
<g>
	<path class="st0" d="M481.9,749.4c5.4-1.9,11.7,3.1,10.8,8.8c-0.2,6.8-9.9,10.3-14.3,5.1C473.9,759.1,476,750.8,481.9,749.4
		L481.9,749.4z M1087.2,754.2c7.8-6,18.4-5.5,27.6-4.1c-0.6,3.6-1.3,7.1-2,10.7c-5.8-1-12.6-2.4-17.8,1.4c-5.3,4.4-5.1,12-5.3,18.3
		c6.3,0.1,12.6,0.1,18.8,0.1l0,10.8c-6.2,0-12.5,0-18.7,0c0,23,0,46,0,69.1c-3.9,0-7.7,0-11.5,0c0-23-0.1-46,0-69
		c-5.6-0.1-11.2-0.1-16.8-0.1c0-3.6,0-7.2,0-10.8c5.6,0,11.2,0,16.8-0.1C1077.9,771.2,1079.5,760.4,1087.2,754.2L1087.2,754.2z
		 M1309.1,749.3h11.6c0,14.5-0.1,29,0.1,43.5c6.3-8.5,16.5-14.4,27.2-14.1c9-0.2,18.9,2.7,24.2,10.5c6.2,8.7,5.5,20,5.6,30.2v41.1
		c-3.9,0-7.8-0.1-11.6-0.1c0-14.7,0.1-29.4,0-44c-0.3-7.7-0.7-16.4-6.4-22.3c-8.1-7-21-6.2-29.1,0.4c-7.4,5.9-9.8,15.9-9.9,25
		c-0.1,13.7,0,27.3,0,40.9c-3.9,0-7.7,0.1-11.6,0L1309.1,749.3z M1411.1,749.8c5.5-3,12.9,2.2,11.9,8.4c-0.1,6.4-8.7,9.8-13.4,5.8
		C1404.7,760.5,1405.6,752.3,1411.1,749.8L1411.1,749.8z M1936.6,749.8c5.6-3,12.9,2.3,11.9,8.5c-0.4,6.8-10.1,10.1-14.3,4.8
		C1930,759.4,1931.5,751.9,1936.6,749.8z M1890.6,750.5c3.9,0,7.7-0.2,11.6-0.1v110.1c-3.8,0-7.7,0-11.5,0
		C1890.6,823.9,1890.7,787.1,1890.6,750.5L1890.6,750.5z M524.6,786.1c8.4-7.5,20.6-8.5,31.2-6.6c7.8,1.4,14.4,6.6,18.2,13.4
		c-3.4,2.5-6.9,4.8-10.5,7.1c-5.1-11.2-20.9-14.3-30.2-6.5c-4.9,4.2-4.2,13,1.6,16c10.7,5.9,24.5,4.2,34.1,12.3
		c11.1,8.8,9.4,28.5-2.9,35.4c-8,5.6-18.1,4.6-27.3,4.4c-10-0.2-18.9-6.7-24.4-14.8c3.3-2.4,6.7-4.6,10.1-6.8
		c6.6,11.2,22,15.4,33.2,8.8c6.1-3.1,8.5-12.4,3-17.2c-6.2-5.2-14.7-5.5-22.2-7.6c-8.1-1.8-16.8-6-19.9-14.2
		C516.1,801.7,517.8,791.8,524.6,786.1L524.6,786.1z M605.1,792c15.4-17.8,46.9-17.9,61.8,0.7c-3.1,2.5-6.4,4.7-9.6,7.2
		c-8.9-13.5-30-13.8-40.8-2.6c-12.6,13.2-11.8,37.5,2.7,49c11.3,8.9,29.8,7.4,38.2-4.8c3.2,2.4,6.4,4.8,9.5,7.3
		c-6.3,6.6-14.6,12.6-24.1,12.8c-9.5,0.4-19.8,0.9-28.2-4.5C592.4,844.6,589,810.8,605.1,792L605.1,792z M985.9,781.5
		c6.6-3.4,14.4-3.1,21.5-2.1c-0.6,3.9-1.4,7.6-2.1,11.5c-5-0.6-10.3-1-15.2,0.9c-9.5,3.4-15.7,13.4-15.9,23.3
		c-0.1,15.2,0.1,30.4-0.1,45.6c-3.8,0-7.7-0.1-11.5-0.1c-0.2-26.6,0.5-53.3-0.8-79.9c3.9,0,7.8,0,11.6,0c0,4.5,0,9.1-0.1,13.7
		C976.5,789.1,980.3,784,985.9,781.5L985.9,781.5z M1233.1,786.8c8.4-8,21-9.3,32-7.3c7.7,1.6,14.4,6.5,18.1,13.4
		c-3.4,2.5-6.9,4.8-10.4,7.1c-5.1-11.1-20.8-14.3-30.1-6.6c-5,4.2-4.4,13.1,1.5,16.2c11.2,6.1,26.2,4,35.6,13.7
		c6.1,5.9,7.1,15.4,4.5,23.2c-3.6,9.9-14.5,15.4-24.6,15.3c-7.5,0-15.4,0.8-22.3-2.7c-5.7-2.6-10.2-7-13.8-12.1
		c3.3-2.4,6.7-4.6,10.1-6.8c6.7,11.5,22.9,15.5,34.1,8.3c5.6-3.4,7.4-12.2,2.1-16.7c-6.2-5.2-14.8-5.5-22.2-7.6
		c-8.1-1.8-16.7-6-19.9-14.2C1225.5,802,1226.9,792.5,1233.1,786.8L1233.1,786.8z M1568.1,792.8c5.7-7.2,13.8-12.9,23.2-13.8
		c9.3-0.9,19.9,0.8,26.6,8c5.8,6.4,7.2,15.2,7.3,23.6c0.1,16.7-0.1,33.3,0.1,50c-3.9-0.1-7.8,0.2-11.7,0c0-15.2,0.1-30.4,0-45.6
		c-0.3-7.5-1.1-16-7-21.3c-9.1-7-23.1-5.1-30.8,3.1c-6.1,6.5-7.6,15.8-7.7,24.3c-0.1,13.2,0.1,26.4,0,39.6l-11.5,0
		c-0.4-26.6,0.9-53.3-0.8-79.9c4,0,8.1,0,12.2,0C1568.1,784.7,1568.1,788.7,1568.1,792.8L1568.1,792.8z M1802.1,792.9
		c5.7-7.5,14.2-13.2,23.7-14c9.3-0.8,19.8,1,26.3,8.2c6,6.7,7.1,16.1,7.2,24.8c0,16.2,0,32.4-0.1,48.6c-3.9,0-7.7,0-11.5,0
		c0-14.7,0-29.4,0-44.1c-0.4-7.9-0.8-16.9-6.9-22.6c-9.4-7.6-24.7-5.1-32,4.3c-5.2,6.4-6.5,14.9-6.6,22.9c0,13.2,0,26.4,0,39.6
		c-3.9,0-7.7,0-11.5,0c-0.5-26.6,0.8-53.3-0.8-79.9h12.1C1802.2,784.7,1802.2,788.8,1802.1,792.9L1802.1,792.9z M1988.5,793
		c6.4-9,17.2-14.9,28.3-14.2c8.5,0,17.8,2.9,22.9,10.1c5.3,7.1,5.8,16.2,5.9,24.7v47c-3.9,0-7.7,0-11.5,0
		c-0.2-15.1,0.2-30.3-0.2-45.5c-0.3-7.7-1-16.5-7.3-21.8c-9.7-7.2-24.7-4.4-31.9,5.1c-4.6,6-6,13.7-6.2,21.1c0,13.7,0,27.3,0,41
		c-3.9,0.1-7.8,0-11.6,0c-0.3-26.6,0.8-53.3-0.8-79.9c4,0,8.1,0,12.1,0C1988.4,784.8,1988.5,788.9,1988.5,793L1988.5,793z
		 M478.5,780.6c3.9-0.1,7.7,0,11.6,0.1c-0.2,26.6,0,53.2-0.1,79.8c-3.8,0-7.7,0-11.5,0C478.5,833.9,478.5,807.3,478.5,780.6z
		 M772.9,780.6c4.5,0.1,9-0.1,13.6,0.1c1.3,1.4,1.6,3.4,2.4,5.1c7.7,20.6,15.5,41.2,23.4,61.7c8.3-22.3,16.9-44.5,25.2-66.9
		c4.4,0,8.9,0,13.3,0c-10.8,26.6-21.7,53.2-32.4,79.9h-13C794.6,833.8,783.8,807.2,772.9,780.6z M1408.7,780.6c3.9,0,7.7,0,11.6,0
		c-0.1,26.6,0,53.2-0.1,79.9c-3.9,0-7.7,0-11.5,0C1408.7,833.9,1408.7,807.3,1408.7,780.6z M1934.3,780.6c3.9,0,7.7,0,11.6,0
		c-0.1,26.6,0,53.2-0.1,79.9c-3.9,0-7.7,0-11.5,0V780.6z M446,749.3c-3.9,0-7.7,0-11.6,0c0,14.7,0.1,29.3,0,44
		c-14.4-18.4-44.5-19.3-61-3.4c-17.4,16.3-16.6,47.8,1.9,63c7.9,7,18.6,9.6,29,8.8c11.7,1.1,22.9-5,30.1-13.9
		c0.1,4.2,0.1,8.5,0.1,12.7c3.8,0,7.7,0,11.5,0C446.1,823.5,446,786.4,446,749.3L446,749.3z M426,842.7c-10.4,10.8-29.1,12.5-41,3.3
		c-11.5-8.8-14.1-25.8-9-38.8c3.2-8.2,10.1-14.5,18.6-16.9c12.1-3.5,26.2,0.8,33.8,10.8C437.8,813.2,436.8,832,426,842.7L426,842.7z
		 M749.9,787.1c-10.8-8.3-25.6-10.2-38.7-7c-8.9,2.2-16.8,7.4-22.3,14.9c-9.2,12.5-10.5,29.9-4.3,44c5.1,11.3,15.2,19.5,27.3,22.2
		c7.4,0.8,14.9,0.8,22.2,0.1c13.1-2.8,24.5-12.6,28.8-25.3C769.2,819.2,764.6,798.2,749.9,787.1L749.9,787.1z M745.2,842.6
		c-9.9,11.3-28.7,12.5-40.4,3.4c-11.1-8.8-13.9-25.2-9-38.1c3-8.3,9.8-14.8,18.3-17.3c10.6-3.2,23.2-0.5,30.8,7.8
		C755.6,810.3,755.8,830.4,745.2,842.6z M937.3,823.9c0.8-12.5-2.1-25.9-11.4-34.9c-12.3-12.2-33.1-13.5-47.7-4.7
		c-17.3,10.1-23.4,33.3-16.8,51.6c4.3,12.2,14.3,21.6,26.8,25c5.8,1.2,11.7,0.7,17.6,0.7c11.7,0.1,21.8-7.4,28.8-16.1
		c-2.9-2.5-6-4.9-9-7.3c-7.1,10.5-20.8,16.4-33.1,12.7c-12-3.2-20.2-14.9-21.5-27C893.1,823.9,915.2,823.9,937.3,823.9L937.3,823.9z
		 M871.2,814.2c1.1-13.1,12.9-23.8,25.8-24.9c8-0.6,16.7,1.9,21.9,8.3c4,4.5,5.3,10.7,5.9,16.5C907,814.3,889.1,814.2,871.2,814.2z
		 M1201.2,780.7c-3.9,0-7.8,0-11.7,0l0,7.7c-16.9-13.6-44.2-13.2-59.5,2.8c-17.6,18.1-14.3,52.2,7.8,65.2c9.4,6.5,21.2,5.7,32.1,5.2
		c7.3-0.6,13.9-4.5,19.7-8.7c0,2.5,0,5.1,0,7.7c3.8,0,7.7,0,11.5,0.1C1201.3,834,1201.1,807.3,1201.2,780.7L1201.2,780.7z
		 M1179.9,845.6c-10.7,8.7-27.8,8.5-38.2-0.5c-10.2-9-12.8-24.6-8.1-37c3-8.3,9.6-14.7,18-17.4c11.3-3.5,25-0.5,32.5,9.1
		C1194.4,813,1193.2,834.7,1179.9,845.6z M1516.7,788c-10.8-8.9-26.1-11.2-39.5-7.9c-8.5,2.2-16.5,7-21.8,14
		c-14.5,18.4-10.7,49.2,9.6,61.8c9.8,6.9,22.2,6.1,33.5,5.5c13.3-1.9,25-11.7,29.9-24.2C1534.7,820.6,1531,799.5,1516.7,788
		L1516.7,788z M1507.3,846c-10.4,8-26.2,8.1-36.6,0.1c-11.9-9.3-14.4-27.2-8.2-40.4c3.4-7.3,9.7-12.8,17.5-15.1
		c10.7-3.1,23.3-0.5,30.8,8C1522.5,811.7,1521.4,834.8,1507.3,846L1507.3,846z M1752.7,787.9c-10.9-9-26.2-11.1-39.6-7.8
		c-9.6,2.4-18.2,8.4-23.5,16.7c-12.6,18.9-7.6,48.2,12.7,59.7c9.5,6.4,21.3,5.5,32.2,4.9c14.2-2,26.5-12.9,30.8-26.5
		C1770.7,818.7,1766.4,798.8,1752.7,787.9L1752.7,787.9z M1747.1,842.5c-9.7,11.1-27.8,12.5-39.6,4.1c-12.1-8.8-15.1-26.4-9.5-39.7
		c3.2-7.9,9.7-13.9,17.8-16.3c10.7-3.2,23.2-0.6,30.9,7.7C1757.4,810.3,1757.7,830.4,1747.1,842.5L1747.1,842.5z M2147,823.9
		c1-10.6-0.2-22-6.9-30.7c-13-18.1-42.1-19.2-57.8-4c-19.1,17.5-16.9,52.9,5.3,66.8c9.8,7,22.3,6.1,33.6,5.2
		c9.7-1.6,17.6-8.3,23.9-15.6c-2.9-2.6-5.9-5-8.9-7.5c-7,10.1-19.9,16-32,13c-12.6-2.8-21.3-14.8-22.6-27.3
		C2103.3,823.9,2125.2,823.9,2147,823.9L2147,823.9z M2081.7,814.2c1.2-15.4,17.2-27.1,32.2-24.7c6.6,0.8,13.1,4.2,16.9,9.8
		c3.2,4.3,3.9,9.7,4.6,14.9C2117.5,814.3,2099.6,814.2,2081.7,814.2z M2108.2,469.8c-23.2-23.4-53.5-38.4-84.4-48.8
		c-41.7-14.5-86.3-17.8-127.7-33.2c-13.6-5.1-27-11.9-36.9-22.8c-13.1-14.5-15.9-36.8-8.1-54.4c5-11.3,14.9-19.9,25.9-25.1
		c18.3-8.6,39.1-9.9,59-8.3c20.3,1.5,40.8,8.1,56,22.1c13.1,11.8,21.3,28.4,24.7,45.6c0.5,4.5,3.7,9.2,8.8,8.8
		c32.4,0.3,64.8,0.8,97.3,0.8c4.6,0.6,9-3.3,7.7-8.1c-3.7-25.9-12.8-51.2-27.5-72.9c-17.8-26.4-44.6-46-74.1-57.7
		c-27.2-11-56.6-15.7-85.8-17.4h-33.6c-35.9,1.9-72.3,7.1-105.3,22.1c-24.1,10.8-46,27.6-59.8,50.4c-13.5,21.7-18.8,47.6-19.1,72.9
		c-17.4-35.7-43.6-66.9-74.9-91.2c-41.6-32.8-93.6-51.4-146.4-54.2h-27.4c-36.4,2.1-71.9,12.1-104.1,29.2
		c-47.3,25.4-86.1,64.2-111.3,111.7c-4.1-20-10.6-39.6-21.1-57.2c-13.9-24-34.9-43.6-59.2-56.7c-32.1-17.7-68.9-24.8-105.2-26.9
		h-34.9c-26.3,1.6-52.8,4.6-78.1,12.2c-29.4,8.7-57.9,23.7-77.5,47.9c-11.2,13.4-18.5,29.6-23.3,46.3c0-27.5,0-55,0-82.5
		c0-3-0.1-6.6-2.7-8.6c-2.2-2.4-5.6-2.2-8.6-2.3c-29.3,0.1-58.7-0.1-88,0.1c-4.4-0.3-7.9,3.8-8.1,8c-0.5,7.9,0.2,15.8-0.2,23.7
		c0.3,1.9-0.6,3.7-2.3,4.7c-3-1.3-5.6-3.3-8.3-5.1c-35.4-24.9-77.1-41.7-120.5-44.4h-23.2c-23.6,1.3-47,5.4-69.4,13.1
		c-38.8,13.4-73.8,36.9-102.3,66.3c-33.5,33.6-57.3,77.1-66.5,123.7c-2.9,13.9-4.4,28.1-5.4,42.2v28.9c1.8,31.9,8.4,63.7,21.6,92.9
		c20.8,46.2,55.9,85.5,98.2,113.3c40.4,26.5,89,39.4,137.1,38.8c48.1,0.4,95.3-17.8,133-47.2c2.1-1.4,5.9-5.4,7.8-1.6
		c0.9,9.2-0.2,18.5,0.5,27.7c0.1,4.1,3.6,8.1,7.9,8c30.5,0.1,61,0.1,91.4,0c4.7,0.2,8.4-4.4,8-9c0.2-27-0.1-54.1,0.1-81.1
		c9,19.1,20.6,37.2,36.2,51.7c26.1,25,60.7,39.2,95.8,45.8c29.2,5.8,59.2,6.3,88.9,5.5c31.4-1.4,62.8-6.2,92.6-16.4
		c23.7-8.1,46.4-20,64.9-37.1c17.8-16.5,30.4-37.9,36.1-61.5c7.9,11.5,16.6,22.3,26,32.5c34.4,37.7,80.5,64.6,130.3,75.7
		c56.6,12.9,117.7,8.3,170.3-16.9c49.2-23.4,90.4-62.9,117-110.3c7.3,28.4,20.4,55.8,40.9,77c17.4,18.5,39.5,32.1,63.2,40.9
		c41,15.4,85.5,17.5,128.9,16.1c35.7-1.8,71.5-7.8,104.7-21.5c25.6-10.6,49.6-26.4,66.4-48.8c14.6-19.3,22.4-43,24.3-66.9v-22.8
		C2145.6,524.6,2131.9,492.7,2108.2,469.8L2108.2,469.8z M730.7,556c-13.8,24.9-35.7,44.2-62.1,54.8c-33.5,13.5-72.2,15.4-106.2,2.4
		c-29.7-11-54.9-33.1-70.6-60.5c-19.4-33.3-25.6-73-22.8-111.1c3.2-38.5,18-76.9,45-105.1c19.6-20.5,45.4-34,73.4-38.6
		c31-4.7,63.8-0.8,92.1,13c24.7,12,44.4,33.1,55.9,57.9c12.3,26.4,16.6,55.8,17.1,84.7C752.9,488.6,748,525,730.7,556L730.7,556z
		 M1151.7,598.3c-7.3,12.8-19.4,22.4-33,27.9c-16.7,7-35.1,8.3-53,7.7c-26.7-0.8-54.8-7.7-74.9-26.2c-15.5-13.9-24.5-33.9-28.1-54.2
		c-0.4-3.9-3.1-8.3-7.5-8.1c-31.1-1-62.2-0.6-93.3-1.6c-0.2-53.5,0.2-107.1-0.2-160.6c3.5,10.5,7.6,21,13.9,30.2
		c11.8,18,29.3,31.4,48.1,41.5c35.2,18.6,74.7,26.7,113.4,34.4c29.4,6.2,59.4,12,86.5,25.4c15.7,7.9,30.9,20.3,35.2,38.1
		C1162,568.3,1159.4,584.5,1151.7,598.3L1151.7,598.3z M1234.2,464.3c-23.3-21-52.2-34.7-81.8-44.4c-31.4-10.6-64.4-14.9-96.4-23.4
		c-16.9-4.5-33.9-9.7-49.1-18.7c-11.2-6.7-21.4-16.6-25.5-29.3c-4.9-14.8-3.5-32.1,5.5-45c7.7-11.4,20.3-18.6,33.3-22.5
		c17.7-5.1,36.4-5.4,54.6-3.2c18.7,2.4,37.3,9.7,50.8,23.2c12.1,11.6,19.6,27.3,22.7,43.6c0.6,4.3,3.3,9,8.1,8.9
		c32.6,0.4,65.1,0.8,97.7,0.8C1239.7,389,1233.3,426.8,1234.2,464.3L1234.2,464.3z M1613.5,552.2c-12.6,23.7-32.9,43.1-56.8,55.3
		c-27.4,13.8-59.4,17.3-89.6,12.6c-25.3-4-49-15.3-68-32.5c-19.2-16.8-32.2-39.7-39.9-63.8c-9.4-29.8-11.6-61.7-8-92.7
		c4.3-33.9,16.5-68.2,40.8-93.1c21.9-23.1,51.3-37.6,82.9-41c26.5-2.9,54.1,0.7,78.3,12.2c25.8,12.5,47.7,33.2,61.1,58.6
		c13.6,25.9,20.1,55.2,20.7,84.3C1635.9,486.5,1629.8,521.7,1613.5,552.2L1613.5,552.2z M2007.1,614.1
		c-14.6,12.6-33.9,18.2-52.9,19.6c-25.9,1.4-52.9-0.7-76.3-12.8c-19.3-9.7-34.3-27.3-41.5-47.6c-3.2-7.6-4-16-6.6-23.7
		c-2.7-5.5-9.7-3.7-14.6-4.3c-26-0.1-52.1-0.8-78.1-0.8c13.3-40.1,16.3-83.3,11-125.1c17.8,23.4,44.6,37.9,71.7,48.1
		c45,17.1,93.5,21.2,139.4,34.7c17.6,5.4,35.2,12,49.7,23.6c9.6,7.6,17.2,18.5,19,30.9C2030.8,577.5,2023.4,600.2,2007.1,614.1
		L2007.1,614.1z"/>
</g>
</svg>
