<?xml version="1.0" encoding="utf-8"?>
<!-- Generator: Adobe Illustrator 21.1.0, SVG Export Plug-In . SVG Version: 6.00 Build 0)  -->
<svg version="1.1" id="Layer_1" xmlns="http://www.w3.org/2000/svg" xmlns:xlink="http://www.w3.org/1999/xlink" x="0px" y="0px"
	 viewBox="0 0 847.9 339.6" style="enable-background:new 0 0 847.9 339.6;" xml:space="preserve">
<style type="text/css">
	.st0{fill:#040404;}
</style>
<g>
	<path class="st0" d="M105.4,258.7c2.2-0.8,4.8,1.2,4.4,3.5c-0.1,2.7-4,4.1-5.8,2C102.1,262.6,103,259.2,105.4,258.7L105.4,258.7z
		 M351.6,260.6c3.2-2.4,7.5-2.2,11.2-1.6c-0.2,1.4-0.5,2.8-0.8,4.3c-2.4-0.4-5.1-0.9-7.2,0.6c-2.2,1.8-2.1,4.8-2.2,7.3
		c2.6,0.1,5.1,0,7.7,0l0,4.3c-2.5,0-5.1,0-7.6,0c0,9.2,0,18.4,0,27.5c-1.6,0-3.1,0-4.7,0c0-9.2,0-18.3,0-27.5c-2.3,0-4.6,0-6.9,0
		c0-1.4,0-2.9,0-4.3c2.3,0,4.6,0,6.8,0C347.8,267.4,348.5,263.1,351.6,260.6L351.6,260.6z M441.9,258.6h4.7c0,5.8,0,11.6,0,17.3
		c2.6-3.4,6.7-5.7,11.1-5.6c3.7-0.1,7.7,1.1,9.9,4.2c2.5,3.5,2.3,8,2.3,12V303c-1.6,0-3.2,0-4.7,0c0-5.9,0-11.7,0-17.6
		c-0.1-3.1-0.3-6.5-2.6-8.9c-3.3-2.8-8.6-2.5-11.8,0.2c-3,2.4-4,6.3-4,10c0,5.4,0,10.9,0,16.3c-1.6,0-3.1,0.1-4.7,0L441.9,258.6z
		 M483.4,258.9c2.2-1.2,5.3,0.9,4.8,3.3c0,2.6-3.5,3.9-5.5,2.3C480.8,263.1,481.1,259.8,483.4,258.9L483.4,258.9z M697.1,258.9
		c2.3-1.2,5.3,0.9,4.8,3.4c-0.2,2.7-4.1,4-5.8,1.9C694.4,262.7,695,259.7,697.1,258.9z M678.4,259.1c1.6,0,3.1-0.1,4.7,0V303
		c-1.6,0-3.1,0-4.7,0C678.4,288.4,678.5,273.7,678.4,259.1L678.4,259.1z M122.8,273.3c3.4-3,8.4-3.4,12.7-2.6
		c3.2,0.6,5.8,2.6,7.4,5.4c-1.4,1-2.8,1.9-4.3,2.8c-2.1-4.5-8.5-5.7-12.3-2.6c-2,1.7-1.7,5.2,0.6,6.4c4.3,2.3,9.9,1.7,13.9,4.9
		c4.5,3.5,3.8,11.3-1.2,14.1c-3.3,2.2-7.4,1.8-11.1,1.8c-4.1-0.1-7.7-2.7-9.9-5.9c1.3-0.9,2.7-1.8,4.1-2.7c2.7,4.4,8.9,6.1,13.5,3.5
		c2.5-1.2,3.5-5,1.2-6.9c-2.5-2.1-6-2.2-9-3c-3.3-0.7-6.8-2.4-8.1-5.7C119.3,279.5,120,275.6,122.8,273.3L122.8,273.3z M155.5,275.6
		c6.3-7.1,19.1-7.1,25.1,0.3c-1.3,1-2.6,1.9-3.9,2.9c-3.6-5.4-12.2-5.5-16.6-1c-5.1,5.3-4.8,15,1.1,19.5c4.6,3.6,12.1,3,15.6-1.9
		c1.3,1,2.6,1.9,3.9,2.9c-2.6,2.6-5.9,5-9.8,5.1c-3.9,0.2-8,0.4-11.5-1.8C150.3,296.6,149,283.1,155.5,275.6L155.5,275.6z
		 M310.4,271.5c2.7-1.4,5.8-1.2,8.8-0.8c-0.3,1.5-0.6,3-0.9,4.6c-2.1-0.2-4.2-0.4-6.2,0.3c-3.9,1.4-6.4,5.3-6.5,9.3
		c0,6.1,0.1,12.1,0,18.2c-1.6,0-3.1,0-4.7,0c-0.1-10.6,0.2-21.2-0.3-31.8c1.6,0,3.2,0,4.7,0c0,1.8,0,3.6,0,5.4
		C306.6,274.5,308.1,272.5,310.4,271.5L310.4,271.5z M411,273.6c3.4-3.2,8.6-3.7,13-2.9c3.1,0.6,5.8,2.6,7.4,5.4
		c-1.4,1-2.8,1.9-4.3,2.8c-2.1-4.4-8.4-5.7-12.2-2.7c-2,1.7-1.8,5.2,0.6,6.4c4.6,2.5,10.6,1.6,14.5,5.5c2.5,2.3,2.9,6.1,1.8,9.2
		c-1.4,4-5.9,6.1-10,6.1c-3,0-6.3,0.3-9.1-1.1c-2.3-1-4.2-2.8-5.6-4.8c1.3-1,2.7-1.8,4.1-2.7c2.7,4.6,9.3,6.2,13.9,3.3
		c2.3-1.4,3-4.9,0.9-6.7c-2.5-2.1-6-2.2-9-3c-3.3-0.7-6.8-2.4-8.1-5.7C407.9,279.6,408.4,275.9,411,273.6L411,273.6z M547.2,276
		c2.3-2.9,5.6-5.1,9.4-5.5c3.8-0.4,8.1,0.3,10.8,3.2c2.3,2.5,2.9,6.1,3,9.4c0,6.6,0,13.3,0,19.9c-1.6,0-3.2,0.1-4.7,0
		c0-6.1,0-12.1,0-18.2c-0.1-3-0.5-6.4-2.9-8.5c-3.7-2.8-9.4-2-12.5,1.2c-2.5,2.6-3.1,6.3-3.1,9.7c0,5.3,0,10.5,0,15.8l-4.7,0
		c-0.2-10.6,0.4-21.3-0.3-31.8c1.6,0,3.3,0,4.9,0C547.2,272.7,547.2,274.4,547.2,276L547.2,276z M642.4,276c2.3-3,5.8-5.2,9.7-5.6
		c3.8-0.3,8,0.4,10.7,3.3c2.4,2.7,2.9,6.4,2.9,9.9c0,6.5,0,12.9,0,19.4c-1.6,0-3.1,0-4.7,0c0-5.9,0-11.7,0-17.6
		c-0.1-3.1-0.3-6.7-2.8-9c-3.8-3-10-2-13,1.7c-2.1,2.5-2.6,5.9-2.7,9.1c0,5.3,0,10.5,0,15.8c-1.6,0-3.1,0-4.7,0
		c-0.2-10.6,0.3-21.3-0.3-31.9h4.9C642.4,272.8,642.4,274.4,642.4,276L642.4,276z M718.2,276c2.6-3.6,7-5.9,11.5-5.7
		c3.5,0,7.2,1.1,9.3,4c2.2,2.8,2.3,6.5,2.4,9.8V303c-1.6,0-3.1,0-4.7,0c-0.1-6,0.1-12.1-0.1-18.1c-0.1-3-0.4-6.6-3-8.7
		c-4-2.9-10.1-1.8-13,2c-1.9,2.4-2.4,5.5-2.5,8.4c0,5.4,0,10.9,0,16.3c-1.6,0-3.2,0-4.7,0c-0.1-10.6,0.3-21.2-0.3-31.8
		c1.6,0,3.3,0,4.9,0C718.2,272.8,718.2,274.4,718.2,276L718.2,276z M104,271.1c1.6,0,3.2,0,4.7,0c-0.1,10.6,0,21.2,0,31.8
		c-1.6,0-3.1,0-4.7,0C104,292.4,104,281.8,104,271.1z M223.8,271.1c1.8,0,3.7-0.1,5.5,0c0.5,0.6,0.7,1.4,1,2
		c3.1,8.2,6.3,16.4,9.5,24.6c3.4-8.9,6.9-17.8,10.3-26.7c1.8,0,3.6,0,5.4,0c-4.4,10.6-8.8,21.2-13.2,31.8H237
		C232.6,292.3,228.2,281.7,223.8,271.1z M482.4,271.1c1.6,0,3.1,0,4.7,0c-0.1,10.6,0,21.2,0,31.8c-1.6,0-3.1,0-4.7,0
		C482.4,292.4,482.4,281.7,482.4,271.1z M696.2,271.1c1.6,0,3.1,0,4.7,0c-0.1,10.6,0,21.2,0,31.8c-1.6,0-3.1,0-4.7,0V271.1z
		 M90.8,258.6c-1.6,0-3.1,0-4.7,0c0,5.9,0,11.7,0,17.5c-5.9-7.3-18.1-7.7-24.8-1.3c-7.1,6.5-6.8,19,0.8,25.1
		c3.2,2.8,7.6,3.8,11.8,3.5c4.8,0.4,9.3-2,12.3-5.6c0,1.7,0,3.4,0,5.1c1.6,0,3.1,0,4.7,0C90.8,288.2,90.8,273.4,90.8,258.6
		L90.8,258.6z M82.7,295.9c-4.2,4.3-11.8,5-16.7,1.3c-4.7-3.5-5.7-10.3-3.7-15.5c1.3-3.3,4.1-5.8,7.6-6.7c4.9-1.4,10.6,0.3,13.8,4.3
		C87.5,284.1,87.1,291.6,82.7,295.9L82.7,295.9z M214.4,273.7c-4.4-3.3-10.4-4.1-15.7-2.8c-3.6,0.9-6.8,3-9.1,5.9
		c-3.7,5-4.3,11.9-1.8,17.5c2.1,4.5,6.2,7.8,11.1,8.9c3,0.3,6.1,0.3,9.1,0c5.3-1.1,10-5,11.7-10.1
		C222.2,286.5,220.4,278.1,214.4,273.7L214.4,273.7z M212.5,295.8c-4,4.5-11.7,5-16.4,1.4c-4.5-3.5-5.7-10.1-3.7-15.2
		c1.2-3.3,4-5.9,7.5-6.9c4.3-1.3,9.4-0.2,12.5,3.1C216.7,283,216.8,291,212.5,295.8z M290.6,288.4c0.3-5-0.9-10.3-4.6-13.9
		c-5-4.9-13.5-5.4-19.4-1.9c-7,4-9.5,13.3-6.8,20.6c1.7,4.9,5.8,8.6,10.9,10c2.3,0.5,4.8,0.3,7.2,0.3c4.7,0,8.9-3,11.7-6.4
		c-1.2-1-2.4-1.9-3.7-2.9c-2.9,4.2-8.4,6.5-13.5,5.1c-4.9-1.3-8.2-5.9-8.7-10.8C272.6,288.4,281.6,288.4,290.6,288.4L290.6,288.4z
		 M263.7,284.5c0.4-5.2,5.3-9.5,10.5-9.9c3.3-0.2,6.8,0.7,8.9,3.3c1.6,1.8,2.2,4.3,2.4,6.6C278.3,284.5,271,284.5,263.7,284.5z
		 M398,271.1c-1.6,0-3.2,0-4.7,0l0,3.1c-6.9-5.4-18-5.2-24.2,1.1c-7.1,7.2-5.8,20.8,3.2,26c3.8,2.6,8.6,2.3,13,2.1
		c3-0.2,5.6-1.8,8-3.5c0,1,0,2,0,3.1c1.6,0,3.1,0,4.7,0C398,292.4,397.9,281.8,398,271.1L398,271.1z M389.3,297
		c-4.4,3.5-11.3,3.4-15.6-0.2c-4.1-3.6-5.2-9.8-3.3-14.8c1.2-3.3,3.9-5.9,7.3-7c4.6-1.4,10.2-0.2,13.2,3.6
		C395.2,284,394.7,292.7,389.3,297z M526.3,274.1c-4.4-3.6-10.6-4.5-16.1-3.1c-3.5,0.9-6.7,2.8-8.9,5.6c-5.9,7.3-4.4,19.6,3.9,24.6
		c4,2.7,9,2.4,13.6,2.2c5.4-0.8,10.2-4.7,12.2-9.6C533.7,287.1,532.1,278.7,526.3,274.1L526.3,274.1z M522.5,297.2
		c-4.2,3.2-10.7,3.2-14.9,0c-4.8-3.7-5.9-10.8-3.3-16.1c1.4-2.9,4-5.1,7.1-6c4.3-1.3,9.5-0.2,12.5,3.2
		C528.7,283.5,528.2,292.7,522.5,297.2L522.5,297.2z M622.3,274c-4.4-3.6-10.7-4.4-16.1-3.1c-3.9,0.9-7.4,3.3-9.6,6.7
		c-5.1,7.5-3.1,19.2,5.2,23.8c3.9,2.5,8.7,2.2,13.1,2c5.8-0.8,10.8-5.1,12.5-10.6C629.6,286.3,627.9,278.4,622.3,274L622.3,274z
		 M620.1,295.8c-3.9,4.4-11.3,5-16.1,1.6c-4.9-3.5-6.1-10.5-3.9-15.8c1.3-3.1,4-5.5,7.3-6.5c4.3-1.3,9.5-0.2,12.6,3.1
		C624.3,283,624.3,291,620.1,295.8L620.1,295.8z M782.7,288.4c0.4-4.2-0.1-8.8-2.8-12.2c-5.3-7.2-17.1-7.7-23.5-1.6
		c-7.8,7-6.9,21.1,2.2,26.6c4,2.8,9.1,2.4,13.7,2.1c4-0.6,7.1-3.3,9.7-6.2c-1.2-1-2.4-2-3.6-3c-2.9,4-8.1,6.4-13,5.2
		c-5.1-1.1-8.7-5.9-9.2-10.9C764.9,288.4,773.8,288.4,782.7,288.4L782.7,288.4z M756.1,284.5c0.5-6.1,7-10.8,13.1-9.8
		c2.7,0.3,5.3,1.7,6.9,3.9c1.3,1.7,1.6,3.9,1.9,5.9C770.7,284.5,763.4,284.5,756.1,284.5z M766.9,147.2
		c-9.4-9.3-21.8-15.3-34.3-19.5c-17-5.8-35.1-7.1-51.9-13.2c-5.5-2-11-4.7-15-9.1c-5.3-5.8-6.5-14.7-3.3-21.7c2-4.5,6-7.9,10.5-10
		c7.4-3.4,15.9-3.9,24-3.3c8.2,0.6,16.6,3.2,22.8,8.8c5.3,4.7,8.7,11.3,10,18.2c0.2,1.8,1.5,3.7,3.6,3.5c13.2,0.1,26.4,0.3,39.6,0.3
		c1.9,0.2,3.7-1.3,3.1-3.2c-1.5-10.3-5.2-20.4-11.2-29c-7.3-10.5-18.1-18.3-30.1-23c-11.1-4.4-23-6.3-34.9-6.9h-13.7
		c-14.6,0.8-29.4,2.8-42.8,8.8c-9.8,4.3-18.7,11-24.3,20.1c-5.5,8.7-7.7,19-7.8,29.1c-7.1-14.2-17.8-26.6-30.5-36.4
		c-16.9-13.1-38.1-20.5-59.5-21.6h-11.2c-14.8,0.8-29.3,4.8-42.4,11.6c-19.3,10.1-35,25.6-45.3,44.5c-1.7-8-4.3-15.8-8.6-22.8
		c-5.7-9.6-14.2-17.4-24.1-22.6c-13.1-7.1-28-9.9-42.8-10.7h-14.2c-10.7,0.6-21.5,1.8-31.8,4.9c-12,3.5-23.6,9.5-31.5,19.1
		c-4.6,5.4-7.5,11.8-9.5,18.4c0-11,0-21.9,0-32.9c0-1.2,0-2.6-1.1-3.4c-0.9-1-2.3-0.9-3.5-0.9c-11.9,0.1-23.9,0-35.8,0
		c-1.8-0.1-3.2,1.5-3.3,3.2c-0.2,3.1,0.1,6.3-0.1,9.5c0.1,0.7-0.3,1.5-0.9,1.9c-1.2-0.5-2.3-1.3-3.4-2c-14.4-9.9-31.4-16.6-49-17.7
		h-9.4c-9.6,0.5-19.1,2.1-28.2,5.2c-15.8,5.3-30,14.7-41.6,26.4C70,84.1,60.3,101.4,56.6,120c-1.2,5.6-1.8,11.2-2.2,16.8v11.5
		c0.7,12.7,3.4,25.4,8.8,37c8.5,18.4,22.8,34.1,39.9,45.2c16.4,10.6,36.2,15.7,55.8,15.5c19.6,0.2,38.8-7.1,54.1-18.8
		c0.8-0.6,2.4-2.1,3.2-0.6c0.4,3.7-0.1,7.4,0.2,11.1c0.1,1.6,1.5,3.2,3.2,3.2c12.4,0,24.8,0,37.2,0c1.9,0.1,3.4-1.8,3.3-3.6
		c0.1-10.8,0-21.6,0-32.3c3.7,7.6,8.4,14.8,14.7,20.6c10.6,9.9,24.7,15.6,38.9,18.3c11.9,2.3,24.1,2.5,36.2,2.2
		c12.8-0.6,25.6-2.5,37.7-6.5c9.6-3.2,18.9-8,26.4-14.8c7.2-6.6,12.4-15.1,14.7-24.5c3.2,4.6,6.7,8.9,10.6,13
		c14,15,32.7,25.7,53,30.2c23,5.2,47.9,3.3,69.3-6.7c20-9.3,36.8-25.1,47.6-44c3,11.3,8.3,22.2,16.6,30.7
		c7.1,7.4,16.1,12.8,25.7,16.3c16.7,6.1,34.8,7,52.4,6.4c14.5-0.7,29.1-3.1,42.6-8.6c10.4-4.2,20.2-10.5,27-19.4
		c5.9-7.7,9.1-17.1,9.9-26.7v-9.1C782.1,169.1,776.6,156.3,766.9,147.2L766.9,147.2z M206.6,181.6c-5.6,9.9-14.5,17.6-25.3,21.9
		c-13.6,5.4-29.4,6.1-43.2,1c-12.1-4.4-22.3-13.2-28.7-24.1c-7.9-13.3-10.4-29.1-9.3-44.3c1.3-15.4,7.3-30.7,18.3-41.9
		c8-8.2,18.5-13.6,29.9-15.4c12.6-1.9,25.9-0.3,37.5,5.2c10,4.8,18.1,13.2,22.7,23.1c5,10.5,6.8,22.3,7,33.8
		C215.7,154.7,213.7,169.2,206.6,181.6L206.6,181.6z M377.8,198.5c-3,5.1-7.9,8.9-13.4,11.1c-6.8,2.8-14.3,3.3-21.6,3.1
		c-10.9-0.3-22.3-3-30.4-10.4c-6.3-5.6-10-13.5-11.4-21.6c-0.2-1.6-1.3-3.3-3.1-3.2c-12.6-0.4-25.3-0.2-37.9-0.6
		c-0.1-21.3,0.1-42.7-0.1-64c1.4,4.2,3.1,8.4,5.7,12c4.8,7.2,11.9,12.5,19.6,16.5c14.3,7.4,30.4,10.6,46.1,13.7
		c12,2.5,24.2,4.8,35.2,10.1c6.4,3.1,12.6,8.1,14.3,15.2C382,186.5,381,192.9,377.8,198.5L377.8,198.5z M411.4,145
		c-9.5-8.4-21.2-13.8-33.3-17.7c-12.8-4.2-26.2-6-39.2-9.3c-6.9-1.8-13.8-3.9-20-7.4c-4.6-2.7-8.7-6.6-10.4-11.7
		c-2-5.9-1.4-12.8,2.3-17.9c3.1-4.6,8.3-7.4,13.6-9c7.2-2,14.8-2.2,22.2-1.3c7.6,1,15.2,3.9,20.7,9.3c4.9,4.6,8,10.9,9.2,17.4
		c0.2,1.7,1.3,3.6,3.3,3.5c13.2,0.1,26.5,0.3,39.7,0.3C413.6,115,411,130.1,411.4,145L411.4,145z M565.7,180.1
		c-5.1,9.5-13.4,17.2-23.1,22.1c-11.2,5.5-24.2,6.9-36.4,5c-10.3-1.6-19.9-6.1-27.7-13c-7.8-6.7-13.1-15.8-16.2-25.4
		c-3.8-11.9-4.7-24.6-3.3-36.9c1.8-13.5,6.7-27.2,16.6-37.1c8.9-9.2,20.9-15,33.7-16.4c10.8-1.2,22,0.3,31.9,4.9
		c10.5,5,19.4,13.2,24.8,23.4c5.5,10.3,8.2,22,8.4,33.6C574.8,153.9,572.3,167.9,565.7,180.1L565.7,180.1z M725.8,204.7
		c-5.9,5-13.8,7.2-21.5,7.8c-10.5,0.6-21.5-0.3-31-5.1c-7.9-3.9-14-10.9-16.9-19c-1.3-3-1.6-6.4-2.7-9.5c-1.1-2.2-3.9-1.5-5.9-1.7
		c-10.6,0-21.2-0.3-31.7-0.3c5.4-16,6.6-33.2,4.5-49.9c7.3,9.3,18.1,15.1,29.2,19.2c18.3,6.8,38,8.4,56.7,13.9
		c7.1,2.2,14.3,4.8,20.2,9.4c3.9,3,7,7.4,7.7,12.3C735.4,190.1,732.4,199.2,725.8,204.7L725.8,204.7z"/>
</g>
</svg>
